<svg width="22" height="17" viewBox="0 0 22 17" fill="none" xmlns="http://www.w3.org/2000/svg">
<path d="M7.05712 16.6988L21.4731 3.16008C21.6223 3.02059 21.7272 2.84032 21.7747 2.64169C21.8223 2.44306 21.8104 2.23483 21.7405 2.0429C21.6707 1.85097 21.5459 1.68381 21.3818 1.56222C21.2177 1.44062 21.0215 1.36995 20.8175 1.359L1.07176 0.254157C0.900381 0.243478 0.729036 0.275634 0.573186 0.347723C0.417336 0.419812 0.281884 0.529567 0.179051 0.667086C0.0762177 0.804605 0.00923841 0.965561 -0.0158447 1.13543C-0.0409279 1.30531 -0.0233256 1.47875 0.0353741 1.64012L1.66799 6.15617C1.84613 6.64559 2.3615 6.93468 2.8723 6.81527L17.3768 3.63118L4.21544 10.5055C3.75096 10.7522 3.54198 11.3049 3.72012 11.7943L5.37231 16.3032C5.62527 16.9982 6.5144 17.2178 7.05712 16.6988Z" fill="black"/>
</svg>
