<svg width="23" height="23" viewBox="0 0 23 23" fill="none" xmlns="http://www.w3.org/2000/svg">
<path d="M11.5 0.390625C9.30246 0.390625 7.15424 1.04228 5.32703 2.26318C3.49982 3.48409 2.07568 5.21941 1.2347 7.2497C0.39373 9.27999 0.173693 11.5141 0.602418 13.6694C1.03114 15.8248 2.08937 17.8046 3.64329 19.3585C5.19721 20.9124 7.17702 21.9706 9.33236 22.3994C11.4877 22.8281 13.7218 22.608 15.7521 21.7671C17.7824 20.9261 19.5177 19.502 20.7386 17.6747C21.9595 15.8475 22.6111 13.6993 22.6111 11.5017C22.6111 8.55489 21.4405 5.72873 19.3568 3.64499C17.273 1.56126 14.4469 0.390625 11.5 0.390625ZM11.3473 18.342C11.1206 18.342 10.8991 18.2748 10.7107 18.1489C10.5222 18.023 10.3754 17.844 10.2886 17.6347C10.2019 17.4253 10.1792 17.1949 10.2234 16.9726C10.2677 16.7504 10.3768 16.5462 10.537 16.386C10.6973 16.2257 10.9014 16.1166 11.1237 16.0724C11.346 16.0282 11.5764 16.0508 11.7857 16.1376C11.9951 16.2243 12.1741 16.3712 12.3 16.5596C12.4259 16.748 12.4931 16.9696 12.4931 17.1962C12.4931 17.5001 12.3724 17.7915 12.1575 18.0064C11.9426 18.2213 11.6511 18.342 11.3473 18.342ZM12.2986 12.7448V13.9392C12.2972 14.1822 12.2029 14.4153 12.035 14.5909C11.8671 14.7665 11.6385 14.8713 11.3959 14.8837H11.3195C11.1967 14.8883 11.0742 14.8686 10.9591 14.8256C10.8439 14.7827 10.7385 14.7174 10.6487 14.6334C10.559 14.5495 10.4868 14.4486 10.4362 14.3366C10.3856 14.2246 10.3578 14.1037 10.3542 13.9809V12.0642C10.3428 11.9529 10.354 11.8404 10.3874 11.7336C10.4207 11.6267 10.4754 11.5278 10.5481 11.4427C10.6209 11.3576 10.7101 11.2882 10.8105 11.2387C10.9108 11.1891 11.0202 11.1605 11.132 11.1545C12.2223 11.0712 14.0348 10.6684 14.0348 8.89757C14.0348 7.62674 13.0556 6.76563 11.6528 6.76563C11.121 6.7744 10.5975 6.89811 10.118 7.12826C9.63851 7.3584 9.2145 7.68954 8.87503 8.09896C8.74664 8.23538 8.58058 8.33054 8.39797 8.37233C8.21535 8.41412 8.02444 8.40067 7.84949 8.33366C7.67455 8.26666 7.52348 8.14915 7.4155 7.99607C7.30752 7.84298 7.24751 7.66124 7.24309 7.47396C7.24718 7.21216 7.35451 6.96258 7.5417 6.77951C8.05742 6.18246 8.69778 5.70576 9.41769 5.38301C10.1376 5.06025 10.9195 4.89929 11.7084 4.91146C14.2778 4.91146 16.0695 6.50868 16.0695 8.80035C16.0695 10.9184 14.7014 12.3351 12.2986 12.7448Z" fill="black"/>
</svg>
